<?xml version="1.0" encoding="UTF-8" standalone="no"?>
<!DOCTYPE svg PUBLIC "-//W3C//DTD SVG 1.1//EN" "http://www.w3.org/Graphics/SVG/1.1/DTD/svg11.dtd">
<svg width="100%" height="100%" viewBox="0 0 1182 1182" version="1.1" xmlns="http://www.w3.org/2000/svg" xmlns:xlink="http://www.w3.org/1999/xlink" xml:space="preserve" xmlns:serif="http://www.serif.com/" style="fill-rule:evenodd;clip-rule:evenodd;stroke-linejoin:round;stroke-miterlimit:2;">
    <g id="Keypad" transform="matrix(49.2126,3.63972e-30,-6.06619e-31,49.2126,-11565,-49.2126)">
        <path d="M238.25,7.5C240.045,7.5 241.5,6.045 241.5,4.25C241.5,2.455 240.045,1 238.25,1C236.455,1 235,2.455 235,4.25C235,6.045 236.455,7.5 238.25,7.5ZM247,7.5C248.795,7.5 250.25,6.045 250.25,4.25C250.25,2.455 248.795,1 247,1C245.205,1 243.75,2.455 243.75,4.25C243.75,6.045 245.205,7.5 247,7.5ZM255.75,7.5C257.545,7.5 259,6.045 259,4.25C259,2.455 257.545,1 255.75,1C253.955,1 252.5,2.455 252.5,4.25C252.5,6.045 253.955,7.5 255.75,7.5ZM238.25,16.25C240.045,16.25 241.5,14.795 241.5,13C241.5,11.205 240.045,9.75 238.25,9.75C236.455,9.75 235,11.205 235,13C235,14.795 236.455,16.25 238.25,16.25ZM247,16.25C248.795,16.25 250.25,14.795 250.25,13C250.25,11.205 248.795,9.75 247,9.75C245.205,9.75 243.75,11.205 243.75,13C243.75,14.795 245.205,16.25 247,16.25ZM255.75,16.25C257.545,16.25 259,14.795 259,13C259,11.205 257.545,9.75 255.75,9.75C253.955,9.75 252.5,11.205 252.5,13C252.5,14.795 253.955,16.25 255.75,16.25ZM238.25,25C240.045,25 241.5,23.545 241.5,21.75C241.5,19.955 240.045,18.5 238.25,18.5C236.455,18.5 235,19.955 235,21.75C235,23.545 236.455,25 238.25,25ZM247,25C248.795,25 250.25,23.545 250.25,21.75C250.25,19.955 248.795,18.5 247,18.5C245.205,18.5 243.75,19.955 243.75,21.75C243.75,23.545 245.205,25 247,25ZM255.75,25C257.545,25 259,23.545 259,21.75C259,19.955 257.545,18.5 255.75,18.5C253.955,18.5 252.5,19.955 252.5,21.75C252.5,23.545 253.955,25 255.75,25Z" style="fill:white;fill-rule:nonzero;"/>
    </g>
</svg>
